<svg width="27" height="27" viewBox="0 0 27 27" fill="none" xmlns="http://www.w3.org/2000/svg">
<path d="M17.7554 4.44946L19.1314 3.42798L18.3746 2.67017L21.4039 2.54419L20.899 5.44751L20.1412 4.81665L12.19 10.8743L9.79254 9.8645L3.10309 13.0198L13.5787 2.48169L15.9761 4.81665L15.0933 5.57349L13.4527 3.93286L8.84528 8.72876L9.85504 8.0979L12.0005 8.72876L17.3463 4.75415L13.522 0.929932L1.2359 13.2161L13.522 25.5022L25.8082 13.2161L20.2925 7.70044L20.3248 7.0188L26.522 13.2161L13.522 26.2161L0.522034 13.2161L13.522 0.216064L17.7554 4.44946ZM24.1802 13.2727L13.5787 23.8743L3.48102 13.8401L4.42828 13.2727L13.5152 22.4231L22.855 13.2727L20.2681 10.7483V9.23364L24.1802 13.2727ZM14.3355 20.845L13.5152 21.6028L12.6949 20.719V11.3792L14.3355 10.2434V20.845ZM11.8111 11.5686V19.8352L10.0445 18.1946V10.8743L11.8111 11.5686ZM16.9859 18.1946L15.3453 19.8352V9.35962L16.9859 8.22388V18.1946ZM19.6363 15.5442L17.8697 17.3118V7.46704L19.6363 6.20435V15.5442ZM9.16071 17.1848L7.3941 15.6077V11.7581L9.16071 10.8743V17.1848Z" fill="white"/>
</svg>
