<svg width="111" height="98" viewBox="0 0 111 98" fill="none" xmlns="http://www.w3.org/2000/svg">
<path d="M73.5771 15.96L79.4502 12.1064L76.2168 9.25195L89.1484 8.77637L86.9932 19.7178L83.7607 17.3389L75.5059 22.8906L77.9219 24.8945L81.6055 22.5723V27.9492L84.2988 30.1836L84.543 25.6416L111 49L55.5 98L0 49L55.5 0L73.5771 15.96ZM5.99707 49L55.5 92.7051L105.002 49L81.6055 28.3428V57.7754L74.0615 64.4365V27.3291L77.792 24.9766L75.4629 22.9199L49.8135 40.1738L39.5762 36.3682L11.0176 48.2617L55.7412 8.53809L65.9785 17.3389L62.207 20.1934L55.2021 14.0088L35.5352 32.0869L39.8457 29.708L49.0059 32.0869L70.1367 18.2178L55.5 5.29492L5.99707 49ZM101.003 49.2129L55.7412 89.1738L12.6338 51.3535L16.6758 49.2129L55.4717 83.7031L95.3457 49.2129L84.2988 39.6982V33.9893L101.003 49.2129ZM58.9736 77.7568L55.4717 80.6113L51.9688 77.2803V42.0771L58.9736 37.7949V77.7568ZM48.1973 42.79V73.9512L40.6533 67.7666V40.1738L48.1973 42.79ZM70.29 67.7666L63.2852 73.9502V34.4648L70.29 30.1836V67.7666ZM36.8818 63.96L29.3379 58.0137V43.5039L36.8818 40.1738V63.96Z" fill="#141720"/>
</svg>
