<svg width="145" height="21" viewBox="0 0 145 21" fill="none" xmlns="http://www.w3.org/2000/svg">
<path d="M8.23616 11.3243H5.6512C5.6512 15.4318 5.6512 20.4876 5.6512 20.4876H1.8208C1.8208 20.4876 1.8208 15.4808 1.8208 11.3243H0V8.08577H1.8208V5.99101C1.8208 4.49076 2.5376 2.14648 5.6864 2.14648L8.5248 2.15731V5.30103C8.5248 5.30103 6.8 5.30103 6.46464 5.30103C6.12928 5.30103 5.65248 5.4678 5.65248 6.18324V8.08641H8.57088L8.23616 11.3243Z" fill="white"/>
<path d="M55.7711 7.29147L55.7831 7.79807C55.7831 12.9712 51.826 18.9311 44.589 18.9311C42.3678 18.9311 40.3004 18.2835 38.5586 17.1729C38.8662 17.2086 39.1798 17.2285 39.4974 17.2285C41.3411 17.2285 43.037 16.6027 44.3833 15.5538C42.6615 15.522 41.2093 14.3896 40.7079 12.8361C40.9496 12.8818 41.1933 12.9037 41.449 12.9037C41.8085 12.9037 42.1561 12.858 42.4857 12.7686C40.6859 12.407 39.3296 10.8277 39.3296 8.93249V8.88282C39.8609 9.17683 40.4662 9.35164 41.1114 9.37353C40.0567 8.67226 39.3616 7.47432 39.3616 6.11746C39.3616 5.4003 39.5553 4.72883 39.8929 4.15074C41.8324 6.51877 44.7328 8.07627 48.0027 8.23918C47.9348 7.95308 47.9009 7.65312 47.9009 7.34722C47.9009 5.18778 49.6627 3.43555 51.836 3.43555C52.9665 3.43555 53.9893 3.91032 54.7083 4.67119C55.6032 4.49435 56.4462 4.16858 57.2072 3.72159C56.9136 4.63544 56.2904 5.40226 55.4774 5.88697C56.2704 5.79358 57.0315 5.581 57.7366 5.27111C57.2093 6.05381 56.5401 6.74319 55.7711 7.29147Z" fill="white"/>
<path d="M92.3945 0.933594C95.1101 0.933594 95.4511 0.945105 96.5176 0.993164C98.1424 1.06692 99.57 1.46319 100.716 2.60254C101.862 3.74213 102.261 5.16218 102.335 6.77832C102.383 7.83906 102.395 8.17814 102.395 10.8789C102.395 13.5795 102.383 13.919 102.335 14.9795C102.261 16.5956 101.862 18.0157 100.716 19.1553C99.57 20.2948 98.1425 20.6909 96.5176 20.7646C95.4511 20.8127 95.1101 20.8242 92.3945 20.8242C89.6789 20.8242 89.3379 20.8127 88.2715 20.7646C86.6465 20.6909 85.2191 20.2948 84.0732 19.1553C82.9274 18.0157 82.5283 16.5956 82.4541 14.9795C82.4058 13.919 82.3945 13.5795 82.3945 10.8789C82.3945 8.17814 82.4058 7.83906 82.4541 6.77832C82.5283 5.16218 82.9274 3.74213 84.0732 2.60254C85.219 1.46319 86.6466 1.06692 88.2715 0.993164C89.3379 0.945105 89.6789 0.933594 92.3945 0.933594ZM92.3936 2.72559C89.7236 2.72559 89.4067 2.73513 88.3525 2.7832C87.2143 2.83461 86.1581 3.06211 85.3457 3.87012C84.5334 4.67814 84.3056 5.72835 84.2539 6.86035C84.2056 7.90873 84.1953 8.22376 84.1953 10.8789C84.1953 13.5344 84.2056 13.85 84.2539 14.8984C84.3056 16.0304 84.5333 17.0807 85.3457 17.8887C86.1581 18.6967 87.2143 18.9232 88.3525 18.9746C89.4067 19.0227 89.7236 19.0332 92.3936 19.0332C95.0636 19.0332 95.3804 19.0227 96.4346 18.9746C97.5728 18.9232 98.6289 18.6967 99.4414 17.8887C100.254 17.0807 100.482 16.0304 100.533 14.8984C100.582 13.85 100.592 13.5344 100.592 10.8789C100.592 8.22376 100.582 7.90873 100.533 6.86035C100.482 5.72831 100.254 4.67815 99.4414 3.87012C98.6289 3.06206 97.5729 2.83459 96.4346 2.7832C95.3804 2.73513 95.0636 2.72559 92.3936 2.72559ZM92.3926 5.77148C95.2284 5.77148 97.5273 8.05853 97.5273 10.8789C97.5271 13.6991 95.2283 15.9854 92.3926 15.9854C89.557 15.9852 87.258 13.699 87.2578 10.8789C87.2578 8.05861 89.5569 5.77161 92.3926 5.77148ZM92.3916 7.56348C90.5509 7.56365 89.0586 9.04821 89.0586 10.8789C89.0587 12.7095 90.551 14.1932 92.3916 14.1934C94.2323 14.1934 95.7254 12.7096 95.7256 10.8789C95.7256 9.04811 94.2324 7.56348 92.3916 7.56348ZM97.7314 4.37695C98.3941 4.37706 98.9316 4.91129 98.9316 5.57031C98.9316 6.22938 98.3941 6.76357 97.7314 6.76367C97.0687 6.76367 96.5312 6.22944 96.5312 5.57031C96.5313 4.91123 97.0687 4.37695 97.7314 4.37695Z" fill="white"/>
<path d="M130.321 1.55205C131.232 1.61304 132.508 1.71931 133.308 1.87431C142.979 3.74638 144.572 13.5316 144.835 16.7054C144.88 17.2561 144.438 17.7003 143.885 17.7005H138.187C137.636 17.7002 137.184 17.2537 137.131 16.7054C136.92 14.5273 135.956 9.52959 131.531 9.52959C131.217 9.52957 130.76 9.48784 130.362 9.44365C129.883 9.39038 129.522 8.99058 129.504 8.50908L129.274 2.57744C129.252 1.99215 129.736 1.51288 130.321 1.55205Z" fill="white"/>
</svg>
