<svg width="70" height="70" viewBox="0 0 70 70" fill="none" xmlns="http://www.w3.org/2000/svg">
<path d="M46.3271 11.4365L50.0254 8.68848L47.9893 6.65234L56.1318 6.31348L54.7754 14.1172L52.7393 12.4199L47.541 16.3799L49.0625 17.8086L51.3818 16.1523V19.9863L53.0791 21.5811L53.2324 18.3418L69.8906 35L34.9453 69.9453L0 35L34.9453 0.0546875L46.3271 11.4365ZM5.65723 35L34.9453 64.2881L64.2334 35L51.3818 22.1484V41.2588L46.6328 46.0088V19.5449L47.8838 18.6504L46.4473 17.2139L31.3652 28.7051L24.9189 25.9912L6.9375 34.4736L35.0967 6.14355L41.543 12.4199L39.168 14.4561L34.7578 10.0449L22.374 22.9375L25.0889 21.2412L30.8564 22.9375L43.082 13.8486L34.9453 5.71191L5.65723 35ZM63.5957 35.1514L35.0967 63.6504L7.95508 36.6787L10.5 35.1514L34.9277 59.749L60.0342 35.1514L53.0791 28.3662V24.2949L63.5957 35.1514ZM37.1328 55.5078L34.9277 57.5439L32.7217 55.1689V30.0625L37.1328 27.0088V55.5078ZM30.3477 30.5713V52.7939L25.5977 48.3838V28.7051L30.3477 30.5713ZM44.2578 48.3838L39.8467 52.7939V24.6338L44.2578 21.5811V48.3838ZM23.2227 45.6689L18.4727 41.4287V31.0801L23.2227 28.7051V45.6689Z" fill="white"/>
</svg>
